<svg version="1.1" id="Layer_1" xmlns="http://www.w3.org/2000/svg" xmlns:xlink="http://www.w3.org/1999/xlink" x="0px" y="0px"
	 width="100%" viewBox="0 0 408 430" enable-background="new 0 0 408 430" xml:space="preserve">
<path fill="#FEFEFE" opacity="1.000000" stroke="none" 
	d="
M266.000000,431.000000 
	C177.333344,431.000000 89.166687,431.000000 1.000024,431.000000 
	C1.000016,287.666687 1.000016,144.333389 1.000008,1.000062 
	C136.999954,1.000041 272.999908,1.000041 408.999908,1.000021 
	C408.999939,144.333267 408.999939,287.666534 408.999969,430.999908 
	C361.500000,431.000000 314.000000,431.000000 266.000000,431.000000 
M108.380455,309.095978 
	C107.141510,309.122620 105.902573,309.149231 104.663635,309.175873 
	C104.814529,310.378967 104.591751,311.859894 105.221527,312.706879 
	C105.849854,313.551910 107.332520,313.761658 108.440613,314.249939 
	C108.982971,312.786316 109.525322,311.322693 110.782692,309.801788 
	C113.219818,313.194702 115.656944,316.587585 117.310715,320.209015 
	C115.928841,321.009125 114.546967,321.809265 113.165100,322.609375 
	C114.697456,323.897461 116.229813,325.185516 117.762161,326.473602 
	C118.266739,325.086548 118.751625,323.691803 119.286331,322.316467 
	C119.479218,321.820343 119.791641,321.370667 120.735100,321.018188 
	C123.068375,322.528717 125.401642,324.039246 127.113785,325.147675 
	C126.450371,326.491333 125.012917,328.274048 125.398026,328.860992 
	C126.167152,330.033295 128.120239,331.383575 129.246521,331.134216 
	C130.786377,330.793304 132.011276,329.029755 133.300858,327.935669 
	C136.340210,327.935669 139.766861,327.935669 143.192886,328.723389 
	C142.267532,330.035645 141.342178,331.347900 140.416840,332.660187 
	C142.339981,332.910187 145.026581,334.090271 146.053009,333.247772 
	C150.307159,329.755890 144.557465,329.779327 144.656296,327.994965 
	C149.506622,326.884430 154.403320,325.934967 159.177719,324.560699 
	C160.527725,324.172119 162.313965,322.692352 162.548477,321.456573 
	C164.114761,313.202698 167.241379,305.745300 172.466812,300.258972 
	C161.026077,297.214661 149.407669,294.887756 138.336761,291.001221 
	C120.919022,284.886597 108.177193,272.998688 100.488464,256.102295 
	C93.516365,240.780731 91.506424,224.510315 92.063637,207.836838 
	C92.580711,192.364426 97.501999,178.440979 107.334648,166.470581 
	C109.652336,163.649002 109.878860,161.346680 108.947624,157.997910 
	C104.873360,143.346619 106.932251,129.124390 112.518265,114.455757 
	C117.486526,115.204773 122.589935,115.015373 126.861885,116.807716 
	C137.391983,121.225761 147.615845,126.406227 157.791199,131.615417 
	C160.468124,132.985840 162.690170,133.567413 165.647888,132.817688 
	C192.629044,125.978584 219.659821,126.083267 246.665955,132.699768 
	C249.715286,133.446838 252.198776,133.353958 255.016830,131.486145 
	C260.272491,128.002640 265.745605,124.744682 271.437836,122.045845 
	C280.609863,117.697136 290.044617,113.931519 300.488098,115.252022 
	C306.068176,130.138489 307.774567,144.874817 303.194885,160.073776 
	C302.724182,161.635895 303.717560,164.175430 304.857971,165.599731 
	C312.294952,174.888214 317.404633,185.249207 319.440552,196.958237 
	C321.485443,208.718872 320.863739,220.525452 319.004547,232.269974 
	C314.924011,258.046509 303.152649,278.760529 278.228027,289.137451 
	C265.998535,294.229004 252.718002,296.796051 240.287613,300.397125 
	C248.161896,308.888184 250.926193,320.317078 250.970413,332.601166 
	C251.026810,348.264618 250.839310,363.928864 250.861710,379.592590 
	C250.874817,388.755402 256.519073,392.991089 264.946777,389.363281 
	C277.141327,384.114044 289.627258,379.085876 300.864044,372.142914 
	C363.895905,333.196716 396.031433,260.280914 382.446045,187.381042 
	C376.111816,153.391464 361.155762,123.533638 337.305725,98.214783 
	C306.700775,65.725014 269.205017,46.883034 224.978958,42.167999 
	C188.829544,38.314026 154.326370,44.899574 122.112625,62.081642 
	C94.507271,76.805702 72.359299,97.514679 55.394501,123.801575 
	C38.212162,150.425552 29.362516,179.630951 27.402361,211.191010 
	C25.639849,239.568848 31.119049,266.556305 42.253056,292.428192 
	C52.742115,316.801453 68.363937,337.647186 88.330399,355.103455 
	C105.943016,370.501740 126.027252,381.825653 148.029419,389.690704 
	C155.291809,392.286713 161.394333,388.996735 161.636444,382.127472 
	C162.032700,370.885101 161.743637,359.618561 161.743637,349.214996 
	C152.627045,349.474213 143.806702,350.396179 135.085236,349.820343 
	C120.957016,348.887573 109.001862,342.810913 102.696877,329.711700 
	C96.739464,317.334595 90.258987,305.890503 78.248810,298.368317 
	C76.536636,297.295990 75.796974,294.670837 74.607231,292.764343 
	C76.798958,291.869720 79.137833,289.986847 81.151711,290.286713 
	C85.316017,290.906738 89.335182,292.608673 93.363693,294.010376 
	C100.698883,296.562683 105.263649,302.342896 109.644653,308.292816 
	C109.692047,308.357178 109.301147,308.744263 108.380455,309.095978 
M154.967072,332.828125 
	C157.354675,335.027710 159.769745,334.834290 161.719482,332.439362 
	C162.153854,331.905823 161.458694,329.434723 160.917740,329.297455 
	C158.267059,328.624847 155.577271,328.610260 154.967072,332.828125 
z"/>
<path fill="#171715" opacity="1.000000" stroke="none" 
	d="
M143.193512,327.935669 
	C139.766861,327.935669 136.340210,327.935669 133.300858,327.935669 
	C132.011276,329.029755 130.786377,330.793304 129.246521,331.134216 
	C128.120239,331.383575 126.167152,330.033295 125.398026,328.860992 
	C125.012917,328.274048 126.450371,326.491333 127.113785,325.147675 
	C125.401642,324.039246 123.068375,322.528717 120.365280,320.988068 
	C119.995461,320.957947 120.074669,320.953339 119.918930,320.622437 
	C119.171326,320.164856 118.579468,320.038177 117.996590,319.955963 
	C118.005569,320.000397 118.094070,319.980499 118.094070,319.980499 
	C115.656944,316.587585 113.219818,313.194702 110.393143,309.861908 
	C110.003593,309.922028 110.083412,309.963257 110.190079,309.575745 
	C109.868835,309.095123 109.440918,309.001984 109.019447,308.953766 
	C109.025894,308.998688 109.114845,308.980682 109.114853,308.980682 
	C109.301147,308.744263 109.692047,308.357178 109.644653,308.292816 
	C105.263649,302.342896 100.698883,296.562683 93.363693,294.010376 
	C89.335182,292.608673 85.316017,290.906738 81.151711,290.286713 
	C79.137833,289.986847 76.798958,291.869720 74.607224,292.764343 
	C75.796974,294.670837 76.536636,297.295990 78.248810,298.368317 
	C90.258987,305.890503 96.739464,317.334595 102.696877,329.711700 
	C109.001862,342.810913 120.957016,348.887573 135.085236,349.820343 
	C143.806702,350.396179 152.627045,349.474213 161.743637,349.214996 
	C161.743637,359.618561 162.032700,370.885101 161.636444,382.127472 
	C161.394333,388.996735 155.291809,392.286713 148.029419,389.690704 
	C126.027252,381.825653 105.943016,370.501740 88.330399,355.103455 
	C68.363937,337.647186 52.742115,316.801453 42.253056,292.428192 
	C31.119049,266.556305 25.639849,239.568848 27.402361,211.191010 
	C29.362516,179.630951 38.212162,150.425552 55.394501,123.801575 
	C72.359299,97.514679 94.507271,76.805702 122.112625,62.081642 
	C154.326370,44.899574 188.829544,38.314026 224.978958,42.167999 
	C269.205017,46.883034 306.700775,65.725014 337.305725,98.214783 
	C361.155762,123.533638 376.111816,153.391464 382.446045,187.381042 
	C396.031433,260.280914 363.895905,333.196716 300.864044,372.142914 
	C289.627258,379.085876 277.141327,384.114044 264.946777,389.363281 
	C256.519073,392.991089 250.874817,388.755402 250.861710,379.592590 
	C250.839310,363.928864 251.026810,348.264618 250.970413,332.601166 
	C250.926193,320.317078 248.161896,308.888184 240.287613,300.397125 
	C252.718002,296.796051 265.998535,294.229004 278.228027,289.137451 
	C303.152649,278.760529 314.924011,258.046509 319.004547,232.269974 
	C320.863739,220.525452 321.485443,208.718872 319.440552,196.958237 
	C317.404633,185.249207 312.294952,174.888214 304.857971,165.599731 
	C303.717560,164.175430 302.724182,161.635895 303.194885,160.073776 
	C307.774567,144.874817 306.068176,130.138489 300.488098,115.252022 
	C290.044617,113.931519 280.609863,117.697136 271.437836,122.045845 
	C265.745605,124.744682 260.272491,128.002640 255.016830,131.486145 
	C252.198776,133.353958 249.715286,133.446838 246.665955,132.699768 
	C219.659821,126.083267 192.629044,125.978584 165.647888,132.817688 
	C162.690170,133.567413 160.468124,132.985840 157.791199,131.615417 
	C147.615845,126.406227 137.391983,121.225761 126.861885,116.807716 
	C122.589935,115.015373 117.486526,115.204773 112.518265,114.455757 
	C106.932251,129.124390 104.873360,143.346619 108.947624,157.997910 
	C109.878860,161.346680 109.652336,163.649002 107.334648,166.470581 
	C97.501999,178.440979 92.580711,192.364426 92.063637,207.836838 
	C91.506424,224.510315 93.516365,240.780731 100.488464,256.102295 
	C108.177193,272.998688 120.919022,284.886597 138.336761,291.001221 
	C149.407669,294.887756 161.026077,297.214661 172.466812,300.258972 
	C167.241379,305.745300 164.114761,313.202698 162.548477,321.456573 
	C162.313965,322.692352 160.527725,324.172119 159.177719,324.560699 
	C154.403320,325.934967 149.506622,326.884430 144.078705,327.934021 
	C143.501129,327.873047 143.193512,327.935669 143.193512,327.935669 
z"/>
<path fill="#353534" opacity="1.000000" stroke="none" 
	d="
M120.022491,320.928894 
	C119.791641,321.370667 119.479218,321.820343 119.286331,322.316467 
	C118.751625,323.691803 118.266739,325.086548 117.762161,326.473602 
	C116.229813,325.185516 114.697456,323.897461 113.165100,322.609375 
	C114.546967,321.809265 115.928841,321.009125 117.702393,320.094757 
	C118.094070,319.980499 118.005569,320.000397 118.031563,320.396362 
	C118.729927,320.846039 119.402298,320.899689 120.074669,320.953339 
	C120.074669,320.953339 119.995461,320.957947 120.022491,320.928894 
z"/>
<path fill="#292928" opacity="1.000000" stroke="none" 
	d="
M154.883240,332.513855 
	C155.577271,328.610260 158.267059,328.624847 160.917740,329.297455 
	C161.458694,329.434723 162.153854,331.905823 161.719482,332.439362 
	C159.769745,334.834290 157.354675,335.027710 154.883240,332.513855 
z"/>
<path fill="#282826" opacity="1.000000" stroke="none" 
	d="
M143.193207,328.329529 
	C143.193512,327.935669 143.501129,327.873047 143.654968,327.904205 
	C144.557465,329.779327 150.307159,329.755890 146.053009,333.247772 
	C145.026581,334.090271 142.339981,332.910187 140.416840,332.660187 
	C141.342178,331.347900 142.267532,330.035645 143.193207,328.329529 
z"/>
<path fill="#383836" opacity="1.000000" stroke="none" 
	d="
M110.035629,309.890564 
	C109.525322,311.322693 108.982971,312.786316 108.440613,314.249939 
	C107.332520,313.761658 105.849854,313.551910 105.221527,312.706879 
	C104.591751,311.859894 104.814529,310.378967 104.663635,309.175873 
	C105.902573,309.149231 107.141510,309.122620 108.747650,309.038330 
	C109.114845,308.980682 109.025894,308.998688 108.973709,309.342773 
	C109.308823,309.779022 109.696121,309.871124 110.083412,309.963257 
	C110.083412,309.963257 110.003593,309.922028 110.035629,309.890564 
z"/>
<path fill="#FEFEFE" opacity="1.000000" stroke="none" 
	d="
M119.918930,320.622437 
	C119.402298,320.899689 118.729927,320.846039 118.022583,320.351929 
	C118.579468,320.038177 119.171326,320.164856 119.918930,320.622437 
z"/>
<path fill="#FEFEFE" opacity="1.000000" stroke="none" 
	d="
M110.190079,309.575745 
	C109.696121,309.871124 109.308823,309.779022 108.967270,309.297852 
	C109.440918,309.001984 109.868835,309.095123 110.190079,309.575745 
z"/>
</svg>